<svg width="131" height="45" viewBox="0 0 131 45" fill="none" xmlns="http://www.w3.org/2000/svg">
<path d="M21.126 1.312L41.658 44H34.176L30.522 35.648H10.976L7.322 44H0.072L20.488 1.312H21.126ZM18.226 19.466L13.586 29.79H27.97L23.388 19.524L20.894 13.666H20.778L18.226 19.466ZM51.8991 44.58C50.2751 44.58 48.6317 44.3867 46.9691 44C45.3064 43.5747 43.9144 42.8787 42.7931 41.912L45.4031 35.938C46.0991 36.75 46.8724 37.3687 47.7231 37.794C48.6124 38.1807 49.6951 38.374 50.9711 38.374C52.1697 38.374 53.1364 38.1613 53.8711 37.736C54.6057 37.3107 55.1471 36.5373 55.4951 35.416C55.8817 34.2947 56.0751 32.69 56.0751 30.602V1.37H62.5131V32.226C62.5131 36.5567 61.5271 39.708 59.5551 41.68C57.6217 43.6133 55.0697 44.58 51.8991 44.58ZM72.7175 1.37H79.2135V44H72.7175V1.37ZM108.616 44.58C104.75 44.58 101.173 43.6907 97.8863 41.912C94.6383 40.0947 92.0476 37.5233 90.1143 34.198C88.1809 30.8727 87.2143 27.006 87.2143 22.598C87.2143 18.1513 88.1809 14.2847 90.1143 10.998C92.0476 7.67267 94.6383 5.12066 97.8863 3.342C101.173 1.56333 104.75 0.673998 108.616 0.673998C112.483 0.673998 116.04 1.56333 119.288 3.342C122.575 5.12066 125.185 7.67267 127.118 10.998C129.052 14.2847 130.018 18.1513 130.018 22.598C130.018 27.006 129.052 30.8727 127.118 34.198C125.185 37.5233 122.575 40.0947 119.288 41.912C116.04 43.6907 112.483 44.58 108.616 44.58ZM108.616 38.722C111.284 38.722 113.72 38.1033 115.924 36.866C118.128 35.59 119.868 33.7533 121.144 31.356C122.459 28.92 123.116 26.02 123.116 22.656C123.116 19.2533 122.459 16.3533 121.144 13.956C119.868 11.52 118.128 9.68333 115.924 8.446C113.759 7.20866 111.323 6.59 108.616 6.59C105.91 6.59 103.454 7.20866 101.25 8.446C99.0463 9.68333 97.3063 11.52 96.0303 13.956C94.7543 16.3533 94.1163 19.2533 94.1163 22.656C94.1163 26.02 94.7736 28.92 96.0883 31.356C97.4029 33.7533 99.1623 35.59 101.366 36.866C103.609 38.1033 106.026 38.722 108.616 38.722Z" fill="white"/>
</svg>
