<svg class="hidden">
  <symbol fill="none" xmlns="http://www.w3.org/2000/svg" width="94" height="32" viewBox="0 0 94 32" id="logo">
    <path d="M10.906 31.236C7.79 31.236 5.23133 30.5013 3.23 29.032C1.22867 27.5373 0.152 25.4093 0 22.648H7.942C8.018 23.5853 8.29667 24.2693 8.778 24.7C9.25933 25.1307 9.88 25.346 10.64 25.346C11.324 25.346 11.8813 25.1813 12.312 24.852C12.768 24.4973 12.996 24.016 12.996 23.408C12.996 22.6227 12.6287 22.0147 11.894 21.584C11.1593 21.1533 9.96867 20.672 8.322 20.14C6.574 19.5573 5.15533 19 4.066 18.468C3.002 17.9107 2.06467 17.1127 1.254 16.074C0.468667 15.01 0.076 13.6293 0.076 11.932C0.076 10.2093 0.506667 8.74 1.368 7.524C2.22933 6.28267 3.42 5.34533 4.94 4.712C6.46 4.07867 8.18267 3.762 10.108 3.762C13.224 3.762 15.7067 4.49667 17.556 5.966C19.4307 7.41 20.4313 9.44934 20.558 12.084H12.464C12.4387 11.2733 12.1853 10.6653 11.704 10.26C11.248 9.85467 10.6527 9.652 9.918 9.652C9.36067 9.652 8.90467 9.81667 8.55 10.146C8.19533 10.4753 8.018 10.944 8.018 11.552C8.018 12.0587 8.208 12.502 8.588 12.882C8.99333 13.2367 9.48733 13.5533 10.07 13.832C10.6527 14.0853 11.514 14.4147 12.654 14.82C14.3513 15.4027 15.7447 15.9853 16.834 16.568C17.9487 17.1253 18.8987 17.9233 19.684 18.962C20.4947 19.9753 20.9 21.2673 20.9 22.838C20.9 24.434 20.4947 25.8653 19.684 27.132C18.8987 28.3987 17.746 29.3993 16.226 30.134C14.7313 30.8687 12.958 31.236 10.906 31.236ZM31.8105 2.85V30.97H24.3625V2.85H31.8105ZM39.8139 7.676C38.4966 7.676 37.4326 7.32133 36.6219 6.612C35.8366 5.87733 35.4439 4.96533 35.4439 3.876C35.4439 2.76133 35.8366 1.83667 36.6219 1.102C37.4326 0.367334 38.4966 0 39.8139 0C41.1059 0 42.1446 0.367334 42.9299 1.102C43.7406 1.83667 44.1459 2.76133 44.1459 3.876C44.1459 4.96533 43.7406 5.87733 42.9299 6.612C42.1446 7.32133 41.1059 7.676 39.8139 7.676ZM43.4999 9.652V30.97H36.0519V9.652H43.4999ZM46.5254 20.292C46.5254 18.088 46.9814 16.1627 47.8934 14.516C48.8054 12.8693 50.072 11.6027 51.6934 10.716C53.34 9.82933 55.2147 9.386 57.3174 9.386C60.028 9.386 62.308 10.1333 64.1574 11.628C66.0067 13.0973 67.1974 15.162 67.7294 17.822H59.8254C59.3694 16.4287 58.4827 15.732 57.1654 15.732C56.228 15.732 55.4807 16.1247 54.9234 16.91C54.3914 17.67 54.1254 18.7973 54.1254 20.292C54.1254 21.7867 54.3914 22.9267 54.9234 23.712C55.4807 24.4973 56.228 24.89 57.1654 24.89C58.508 24.89 59.3947 24.1933 59.8254 22.8H67.7294C67.1974 25.4347 66.0067 27.4993 64.1574 28.994C62.308 30.4887 60.028 31.236 57.3174 31.236C55.2147 31.236 53.34 30.7927 51.6934 29.906C50.072 29.0193 48.8054 27.7527 47.8934 26.106C46.9814 24.4593 46.5254 22.5213 46.5254 20.292ZM84.1614 30.97L78.2714 22.23V30.97H70.8234V2.85H78.2714V18.012L84.1614 9.652H93.0914L84.6934 20.368L93.2434 30.97H84.1614Z" fill="black"></path>
  </symbol>
</svg>