<svg width="22" height="29" viewBox="0 0 22 29" fill="none" xmlns="http://www.w3.org/2000/svg">
<path d="M11.236 28.266C8.12 28.266 5.56133 27.5313 3.56 26.062C1.55867 24.5673 0.482 22.4393 0.33 19.678H8.272C8.348 20.6153 8.62667 21.2993 9.108 21.73C9.58933 22.1607 10.21 22.376 10.97 22.376C11.654 22.376 12.2113 22.2113 12.642 21.882C13.098 21.5273 13.326 21.046 13.326 20.438C13.326 19.6527 12.9587 19.0447 12.224 18.614C11.4893 18.1833 10.2987 17.702 8.652 17.17C6.904 16.5873 5.48533 16.03 4.396 15.498C3.332 14.9407 2.39467 14.1427 1.584 13.104C0.798667 12.04 0.406 10.6593 0.406 8.962C0.406 7.23933 0.836667 5.77 1.698 4.554C2.55933 3.31267 3.75 2.37533 5.27 1.742C6.79 1.10867 8.51267 0.791999 10.438 0.791999C13.554 0.791999 16.0367 1.52667 17.886 2.996C19.7607 4.44 20.7613 6.47933 20.888 9.114H12.794C12.7687 8.30333 12.5153 7.69533 12.034 7.29C11.578 6.88467 10.9827 6.682 10.248 6.682C9.69067 6.682 9.23467 6.84666 8.88 7.176C8.52533 7.50533 8.348 7.974 8.348 8.582C8.348 9.08867 8.538 9.532 8.918 9.912C9.32333 10.2667 9.81733 10.5833 10.4 10.862C10.9827 11.1153 11.844 11.4447 12.984 11.85C14.6813 12.4327 16.0747 13.0153 17.164 13.598C18.2787 14.1553 19.2287 14.9533 20.014 15.992C20.8247 17.0053 21.23 18.2973 21.23 19.868C21.23 21.464 20.8247 22.8953 20.014 24.162C19.2287 25.4287 18.076 26.4293 16.556 27.164C15.0613 27.8987 13.288 28.266 11.236 28.266Z" fill="black"/>
</svg>
